<mxfile host="65bd71144e" scale="4" border="0">
    <diagram id="vhYE6SOcx6A-r8eC3mff" name="Page-1">
        <mxGraphModel dx="747" dy="399" grid="1" gridSize="10" guides="1" tooltips="1" connect="1" arrows="1" fold="1" page="1" pageScale="1" pageWidth="583" pageHeight="827" math="0" shadow="0">
            <root>
                <mxCell id="0"/>
                <mxCell id="1" parent="0"/>
                <mxCell id="2" value="" style="shape=image;verticalLabelPosition=bottom;labelBackgroundColor=#ffffff;verticalAlign=top;aspect=fixed;imageAspect=0;image=data:image/svg+xml,PHN2ZyB4bWxucz0iaHR0cDovL3d3dy53My5vcmcvMjAwMC9zdmciIHhtbG5zOmxpbms9Imh0dHA6Ly93d3cudzMub3JnLzE5OTkveGxpbmsiIHdpZHRoPSI0MzgiIGhlaWdodD0iMjgwIiB2aWV3X2JveD0iMCAwIDQzOCAyODAiIHZpZXdCb3g9IjAgMCA0MzggMjgwIj5cblxuPGRlc2M+R8OpbsOpcsOpIHBhciBNb2NvZG8gMi4zLjcgbGUgV2VkLCAwMSBEZWMgMjAyMSAxMzozNDoxODwvZGVzYz4KCjxyZWN0IGlkPSJmcmFtZSIgeD0iMCIgeT0iMCIgd2lkdGg9IjQzOCIgaGVpZ2h0PSIyODAiIGZpbGw9IiNmZmZmZmYiIHN0cm9rZT0ibm9uZSIgc3Ryb2tlLXdpZHRoPSIwIi8+Cgo8IS0tIEVudGl0eSBlbXBydW50IC0tPgo8ZyBpZD0iZW50aXR5LWVtcHJ1bnQiPgoJPGcgaWQ9ImZyYW1lLWVtcHJ1bnQiPgoJCTxyZWN0IHg9IjQxIiB5PSIxNjEiIHdpZHRoPSI5MCIgaGVpZ2h0PSIyNSIgZmlsbD0iI2JhYmFiYSIgc3Ryb2tlPSIjYmFiYWJhIiBzdHJva2Utd2lkdGg9IjAiLz4KCQk8cmVjdCB4PSI0MSIgeT0iMTg2LjAiIHdpZHRoPSI5MCIgaGVpZ2h0PSI0MyIgZmlsbD0iI2UwZTBlMCIgc3Ryb2tlPSIjZTBlMGUwIiBzdHJva2Utd2lkdGg9IjAiLz4KCQk8cmVjdCB4PSI0MSIgeT0iMTYxIiB3aWR0aD0iOTAiIGhlaWdodD0iNjgiIGZpbGw9Im5vbmUiIHN0cm9rZT0iIzg3ODc4NyIgc3Ryb2tlLXdpZHRoPSIyIi8+CgkJPGxpbmUgeDE9IjQxIiB5MT0iMTg2IiB4Mj0iMTMxIiB5Mj0iMTg2IiBzdHJva2U9IiM4Nzg3ODciIHN0cm9rZS13aWR0aD0iMSIvPgoJPC9nPgoJPHRleHQgeD0iNjAiIHk9IjE3OC43IiBmaWxsPSIjMDAwMDAwIiBmb250LWZhbWlseT0iVmVyZGFuYSIgZm9udC1zaXplPSIxMiI+ZW1wcnVudDwvdGV4dD4KCTx0ZXh0IHg9IjQ2IiB5PSIyMDMuOCIgZmlsbD0iIzAwMDAwMCIgZm9udC1mYW1pbHk9IlZlcmRhbmEiIGZvbnQtc2l6ZT0iMTIiPiNjb2RlX2JhcnJlPC90ZXh0PgoJPGxpbmUgeDE9IjQ2IiB5MT0iMjA2IiB4Mj0iMTI1IiB5Mj0iMjA2IiBzdHJva2U9IiMwMDAwMDAiIHN0cm9rZS13aWR0aD0iMSIvPgoJPHRleHQgeD0iNDYiIHk9IjIyMC44IiBmaWxsPSIjMDAwMDAwIiBmb250LWZhbWlseT0iVmVyZGFuYSIgZm9udC1zaXplPSIxMiI+I2lzYm48L3RleHQ+Cgk8bGluZSB4MT0iNDYiIHkxPSIyMjMiIHgyPSI4MSIgeTI9IjIyMyIgc3Ryb2tlPSIjMDAwMDAwIiBzdHJva2Utd2lkdGg9IjEiLz4KPC9nPgoKPCEtLSBFbnRpdHkgbGl2cmUgLS0+CjxnIGlkPSJlbnRpdHktbGl2cmUiPgoJPGcgaWQ9ImZyYW1lLWxpdnJlIj4KCQk8cmVjdCB4PSI1OSIgeT0iOSIgd2lkdGg9IjU0IiBoZWlnaHQ9IjI1IiBmaWxsPSIjYmFiYWJhIiBzdHJva2U9IiNiYWJhYmEiIHN0cm9rZS13aWR0aD0iMCIvPgoJCTxyZWN0IHg9IjU5IiB5PSIzNC4wIiB3aWR0aD0iNTQiIGhlaWdodD0iNzciIGZpbGw9IiNlMGUwZTAiIHN0cm9rZT0iI2UwZTBlMCIgc3Ryb2tlLXdpZHRoPSIwIi8+CgkJPHJlY3QgeD0iNTkiIHk9IjkiIHdpZHRoPSI1NCIgaGVpZ2h0PSIxMDIiIGZpbGw9Im5vbmUiIHN0cm9rZT0iIzg3ODc4NyIgc3Ryb2tlLXdpZHRoPSIyIi8+CgkJPGxpbmUgeDE9IjU5IiB5MT0iMzQiIHgyPSIxMTMiIHkyPSIzNCIgc3Ryb2tlPSIjODc4Nzg3IiBzdHJva2Utd2lkdGg9IjEiLz4KCTwvZz4KCTx0ZXh0IHg9IjcyIiB5PSIyNi43IiBmaWxsPSIjMDAwMDAwIiBmb250LWZhbWlseT0iVmVyZGFuYSIgZm9udC1zaXplPSIxMiI+bGl2cmU8L3RleHQ+Cgk8dGV4dCB4PSI2NCIgeT0iNTEuNyIgZmlsbD0iIzAwMDAwMCIgZm9udC1mYW1pbHk9IlZlcmRhbmEiIGZvbnQtc2l6ZT0iMTIiPmlzYm48L3RleHQ+Cgk8bGluZSB4MT0iNjQiIHkxPSI1NCIgeDI9IjkwIiB5Mj0iNTQiIHN0cm9rZT0iIzAwMDAwMCIgc3Ryb2tlLXdpZHRoPSIxIi8+Cgk8dGV4dCB4PSI2NCIgeT0iNjguOCIgZmlsbD0iIzAwMDAwMCIgZm9udC1mYW1pbHk9IlZlcmRhbmEiIGZvbnQtc2l6ZT0iMTIiPnRpdHJlPC90ZXh0PgoJPHRleHQgeD0iNjQiIHk9Ijg1LjgiIGZpbGw9IiMwMDAwMDAiIGZvbnQtZmFtaWx5PSJWZXJkYW5hIiBmb250LXNpemU9IjEyIj5lZGl0ZXVyPC90ZXh0PgoJPHRleHQgeD0iNjQiIHk9IjEwMi44IiBmaWxsPSIjMDAwMDAwIiBmb250LWZhbWlseT0iVmVyZGFuYSIgZm9udC1zaXplPSIxMiI+YW5uZWU8L3RleHQ+CjwvZz4KCjwhLS0gRW50aXR5IGF1dGV1ciAtLT4KPGcgaWQ9ImVudGl0eS1hdXRldXIiPgoJPGcgaWQ9ImZyYW1lLWF1dGV1ciI+CgkJPHJlY3QgeD0iMzM5IiB5PSIxOCIgd2lkdGg9IjU4IiBoZWlnaHQ9IjI1IiBmaWxsPSIjYmFiYWJhIiBzdHJva2U9IiNiYWJhYmEiIHN0cm9rZS13aWR0aD0iMCIvPgoJCTxyZWN0IHg9IjMzOSIgeT0iNDMuMCIgd2lkdGg9IjU4IiBoZWlnaHQ9IjU5IiBmaWxsPSIjZTBlMGUwIiBzdHJva2U9IiNlMGUwZTAiIHN0cm9rZS13aWR0aD0iMCIvPgoJCTxyZWN0IHg9IjMzOSIgeT0iMTgiIHdpZHRoPSI1OCIgaGVpZ2h0PSI4NCIgZmlsbD0ibm9uZSIgc3Ryb2tlPSIjODc4Nzg3IiBzdHJva2Utd2lkdGg9IjIiLz4KCQk8bGluZSB4MT0iMzM5IiB5MT0iNDMiIHgyPSIzOTciIHkyPSI0MyIgc3Ryb2tlPSIjODc4Nzg3IiBzdHJva2Utd2lkdGg9IjEiLz4KCTwvZz4KCTx0ZXh0IHg9IjM0OCIgeT0iMzUuNyIgZmlsbD0iIzAwMDAwMCIgZm9udC1mYW1pbHk9IlZlcmRhbmEiIGZvbnQtc2l6ZT0iMTIiPmF1dGV1cjwvdGV4dD4KCTx0ZXh0IHg9IjM0NCIgeT0iNjAuOCIgZmlsbD0iIzAwMDAwMCIgZm9udC1mYW1pbHk9IlZlcmRhbmEiIGZvbnQtc2l6ZT0iMTIiPmFfaWQ8L3RleHQ+Cgk8bGluZSB4MT0iMzQ0IiB5MT0iNjMiIHgyPSIzNzEiIHkyPSI2MyIgc3Ryb2tlPSIjMDAwMDAwIiBzdHJva2Utd2lkdGg9IjEiLz4KCTx0ZXh0IHg9IjM0NCIgeT0iNzcuOCIgZmlsbD0iIzAwMDAwMCIgZm9udC1mYW1pbHk9IlZlcmRhbmEiIGZvbnQtc2l6ZT0iMTIiPm5vbTwvdGV4dD4KCTx0ZXh0IHg9IjM0NCIgeT0iOTQuOCIgZmlsbD0iIzAwMDAwMCIgZm9udC1mYW1pbHk9IlZlcmRhbmEiIGZvbnQtc2l6ZT0iMTIiPnByZW5vbTwvdGV4dD4KPC9nPgoKPCEtLSBFbnRpdHkgdXNhZ2VyIC0tPgo8ZyBpZD0iZW50aXR5LXVzYWdlciI+Cgk8ZyBpZD0iZnJhbWUtdXNhZ2VyIj4KCQk8cmVjdCB4PSIxOTUiIHk9IjExOSIgd2lkdGg9IjgwIiBoZWlnaHQ9IjI1IiBmaWxsPSIjYmFiYWJhIiBzdHJva2U9IiNiYWJhYmEiIHN0cm9rZS13aWR0aD0iMCIvPgoJCTxyZWN0IHg9IjE5NSIgeT0iMTQ0LjAiIHdpZHRoPSI4MCIgaGVpZ2h0PSIxMjciIGZpbGw9IiNlMGUwZTAiIHN0cm9rZT0iI2UwZTBlMCIgc3Ryb2tlLXdpZHRoPSIwIi8+CgkJPHJlY3QgeD0iMTk1IiB5PSIxMTkiIHdpZHRoPSI4MCIgaGVpZ2h0PSIxNTIiIGZpbGw9Im5vbmUiIHN0cm9rZT0iIzg3ODc4NyIgc3Ryb2tlLXdpZHRoPSIyIi8+CgkJPGxpbmUgeDE9IjE5NSIgeTE9IjE0NCIgeDI9IjI3NSIgeTI9IjE0NCIgc3Ryb2tlPSIjODc4Nzg3IiBzdHJva2Utd2lkdGg9IjEiLz4KCTwvZz4KCTx0ZXh0IHg9IjIxNCIgeT0iMTM2LjciIGZpbGw9IiMwMDAwMDAiIGZvbnQtZmFtaWx5PSJWZXJkYW5hIiBmb250LXNpemU9IjEyIj51c2FnZXI8L3RleHQ+Cgk8dGV4dCB4PSIyMDAiIHk9IjE2MS43IiBmaWxsPSIjMDAwMDAwIiBmb250LWZhbWlseT0iVmVyZGFuYSIgZm9udC1zaXplPSIxMiI+Y29kZV9iYXJyZTwvdGV4dD4KCTxsaW5lIHgxPSIyMDAiIHkxPSIxNjQiIHgyPSIyNjkiIHkyPSIxNjQiIHN0cm9rZT0iIzAwMDAwMCIgc3Ryb2tlLXdpZHRoPSIxIi8+Cgk8dGV4dCB4PSIyMDAiIHk9IjE3OC43IiBmaWxsPSIjMDAwMDAwIiBmb250LWZhbWlseT0iVmVyZGFuYSIgZm9udC1zaXplPSIxMiI+bm9tPC90ZXh0PgoJPHRleHQgeD0iMjAwIiB5PSIxOTUuOCIgZmlsbD0iIzAwMDAwMCIgZm9udC1mYW1pbHk9IlZlcmRhbmEiIGZvbnQtc2l6ZT0iMTIiPnByZW5vbTwvdGV4dD4KCTx0ZXh0IHg9IjIwMCIgeT0iMjEyLjgiIGZpbGw9IiMwMDAwMDAiIGZvbnQtZmFtaWx5PSJWZXJkYW5hIiBmb250LXNpemU9IjEyIj5hZHJlc3NlPC90ZXh0PgoJPHRleHQgeD0iMjAwIiB5PSIyMjkuOCIgZmlsbD0iIzAwMDAwMCIgZm9udC1mYW1pbHk9IlZlcmRhbmEiIGZvbnQtc2l6ZT0iMTIiPmNwPC90ZXh0PgoJPHRleHQgeD0iMjAwIiB5PSIyNDYuOCIgZmlsbD0iIzAwMDAwMCIgZm9udC1mYW1pbHk9IlZlcmRhbmEiIGZvbnQtc2l6ZT0iMTIiPnZpbGxlPC90ZXh0PgoJPHRleHQgeD0iMjAwIiB5PSIyNjMuOCIgZmlsbD0iIzAwMDAwMCIgZm9udC1mYW1pbHk9IlZlcmRhbmEiIGZvbnQtc2l6ZT0iMTIiPmVtYWlsPC90ZXh0Pgo8L2c+Cgo8IS0tIEVudGl0eSBhdXRldXIgZGUgLS0+CjxnIGlkPSJlbnRpdHktYXV0ZXVyIGRlIj4KCTxnIGlkPSJmcmFtZS1hdXRldXIgZGUiPgoJCTxyZWN0IHg9IjIwMCIgeT0iMjYiIHdpZHRoPSI3MCIgaGVpZ2h0PSIyNSIgZmlsbD0iI2JhYmFiYSIgc3Ryb2tlPSIjYmFiYWJhIiBzdHJva2Utd2lkdGg9IjAiLz4KCQk8cmVjdCB4PSIyMDAiIHk9IjUxLjAiIHdpZHRoPSI3MCIgaGVpZ2h0PSI0MyIgZmlsbD0iI2UwZTBlMCIgc3Ryb2tlPSIjZTBlMGUwIiBzdHJva2Utd2lkdGg9IjAiLz4KCQk8cmVjdCB4PSIyMDAiIHk9IjI2IiB3aWR0aD0iNzAiIGhlaWdodD0iNjgiIGZpbGw9Im5vbmUiIHN0cm9rZT0iIzg3ODc4NyIgc3Ryb2tlLXdpZHRoPSIyIi8+CgkJPGxpbmUgeDE9IjIwMCIgeTE9IjUxIiB4Mj0iMjcwIiB5Mj0iNTEiIHN0cm9rZT0iIzg3ODc4NyIgc3Ryb2tlLXdpZHRoPSIxIi8+Cgk8L2c+Cgk8dGV4dCB4PSIyMDUiIHk9IjQzLjciIGZpbGw9IiMwMDAwMDAiIGZvbnQtZmFtaWx5PSJWZXJkYW5hIiBmb250LXNpemU9IjEyIj5hdXRldXIgZGU8L3RleHQ+Cgk8dGV4dCB4PSIyMDUiIHk9IjY4LjgiIGZpbGw9IiMwMDAwMDAiIGZvbnQtZmFtaWx5PSJWZXJkYW5hIiBmb250LXNpemU9IjEyIj4jYV9pZDwvdGV4dD4KCTxsaW5lIHgxPSIyMDUiIHkxPSI3MSIgeDI9IjI0MSIgeTI9IjcxIiBzdHJva2U9IiMwMDAwMDAiIHN0cm9rZS13aWR0aD0iMSIvPgoJPHRleHQgeD0iMjA1IiB5PSI4NS44IiBmaWxsPSIjMDAwMDAwIiBmb250LWZhbWlseT0iVmVyZGFuYSIgZm9udC1zaXplPSIxMiI+I2lzYm48L3RleHQ+Cgk8bGluZSB4MT0iMjA1IiB5MT0iODgiIHgyPSIyNDAiIHkyPSI4OCIgc3Ryb2tlPSIjMDAwMDAwIiBzdHJva2Utd2lkdGg9IjEiLz4KPC9nPgoKPCEtLSBMaW5rIGZyb20gImNvZGVfYmFycmUiIChlbXBydW50KSB0byAiY29kZV9iYXJyZSIgKHVzYWdlcikgLS0+CjxwYXRoIGQ9Ik0xMzEgMTk5LjUgQyAxNjMuMCAxNzguNSAxNTIuMzMzMzMzMzMzIDE1Ny41IDE5NSAxNTcuNSIgZmlsbD0ibm9uZSIgc3Ryb2tlPSIjZDY2MDRkIiBzdHJva2Utd2lkdGg9IjIiLz4KPHBhdGggZD0iTSAxOTUgMTU3LjUgTCAxODMuMCAxNjMuNSBMIDE4Ny4wIDE1Ny41IEwgMTgzLjAgMTUxLjUgWiIgZmlsbD0iI2Q2NjA0ZCIgc3Ryb2tlLXdpZHRoPSIwIi8+CjxjaXJjbGUgY3g9IjEzMSIgY3k9IjE5OS41IiByPSIyIiBzdHJva2U9IiNkNjYwNGQiIHN0cm9rZS13aWR0aD0iMiIgZmlsbD0iI2Q2NjA0ZCIvPgoKPCEtLSBMaW5rIGZyb20gImlzYm4iIChlbXBydW50KSB0byAiaXNibiIgKGxpdnJlKSAtLT4KPHBhdGggZD0iTTQxIDIxNi41IEMgLTEzIDEzMi4wIDUgNDcuNSA1OSA0Ny41IiBmaWxsPSJub25lIiBzdHJva2U9IiNkNjYwNGQiIHN0cm9rZS13aWR0aD0iMiIvPgo8cGF0aCBkPSJNIDU5IDQ3LjUgTCA0Ny4wIDUzLjUgTCA1MS4wIDQ3LjUgTCA0Ny4wIDQxLjUgWiIgZmlsbD0iI2Q2NjA0ZCIgc3Ryb2tlLXdpZHRoPSIwIi8+CjxjaXJjbGUgY3g9IjQxIiBjeT0iMjE2LjUiIHI9IjIiIHN0cm9rZT0iI2Q2NjA0ZCIgc3Ryb2tlLXdpZHRoPSIyIiBmaWxsPSIjZDY2MDRkIi8+Cgo8IS0tIExpbmsgZnJvbSAiYV9pZCIgKGF1dGV1ciBkZSkgdG8gImFfaWQiIChhdXRldXIpIC0tPgo8cGF0aCBkPSJNMjcwIDY0LjUgQyAzMDQuNSA2MC41IDI5My4wIDU2LjUgMzM5IDU2LjUiIGZpbGw9Im5vbmUiIHN0cm9rZT0iI2Q2NjA0ZCIgc3Ryb2tlLXdpZHRoPSIyIi8+CjxwYXRoIGQ9Ik0gMzM5IDU2LjUgTCAzMjcuMCA2Mi41IEwgMzMxLjAgNTYuNSBMIDMyNy4wIDUwLjUgWiIgZmlsbD0iI2Q2NjA0ZCIgc3Ryb2tlLXdpZHRoPSIwIi8+CjxjaXJjbGUgY3g9IjI3MCIgY3k9IjY0LjUiIHI9IjIiIHN0cm9rZT0iI2Q2NjA0ZCIgc3Ryb2tlLXdpZHRoPSIyIiBmaWxsPSIjZDY2MDRkIi8+Cgo8IS0tIExpbmsgZnJvbSAiaXNibiIgKGF1dGV1ciBkZSkgdG8gImlzYm4iIChsaXZyZSkgLS0+CjxwYXRoIGQ9Ik0yMDAgODEuNSBDIDE1Ni41IDY0LjUgMTcxLjAgNDcuNSAxMTMgNDcuNSIgZmlsbD0ibm9uZSIgc3Ryb2tlPSIjZDY2MDRkIiBzdHJva2Utd2lkdGg9IjIiLz4KPHBhdGggZD0iTSAxMTMgNDcuNSBMIDEyNS4wIDQxLjUgTCAxMjEuMCA0Ny41IEwgMTI1LjAgNTMuNSBaIiBmaWxsPSIjZDY2MDRkIiBzdHJva2Utd2lkdGg9IjAiLz4KPGNpcmNsZSBjeD0iMjAwIiBjeT0iODEuNSIgcj0iMiIgc3Ryb2tlPSIjZDY2MDRkIiBzdHJva2Utd2lkdGg9IjIiIGZpbGw9IiNkNjYwNGQiLz4KPC9zdmc+;" vertex="1" parent="1">
                    <mxGeometry width="438" height="280" as="geometry"/>
                </mxCell>
            </root>
        </mxGraphModel>
    </diagram>
</mxfile>